# xmcd
#
# Track frame offsets: 
#        150
#        20441
#        45938
#        61852
#        81524
#        113385
#        151057
#        175120
#        200586
#        217097
#        229739
#        251837
#        265715
#        286426
#        294890
#        313384
#        327619
#        349895
#        372714
#        399240
#
# Disc length: 5668 seconds
#
# Revision: 0
# Processed by: cddbd v1.5.2PL0 Copyright (c) Steve Scherf et al.
# Submitted via: ExactAudioCopy v0.95b4
#
DISCID=31162214
DTITLE=Neil Young - Heart Of Gold (Ryman)
DYEAR=1900
DGENRE=
TTITLE0=The Painter
TTITLE1=No Wonder
TTITLE2=Falling Off The Face Of Earth
TTITLE3=Far From Home
TTITLE4=It's A Dream
TTITLE5=Prairie Wind
TTITLE6=Here For You
TTITLE7=This Old Guitar
TTITLE8=When God Made Me
TTITLE9=I Am A Child
TTITLE10=Harvest Moon
TTITLE11=Heart Of Gold
TTITLE12=Old Man
TTITLE13=Needle And The Damage Done
TTITLE14=Old King
TTITLE15=Comes A Time
TTITLE16=Four Strong Winds
TTITLE17=One Of These Days
TTITLE18=The Old Laughing Lady
TTITLE19=He Was The King (bonus track)
EXTD=
EXTT0=
EXTT1=
EXTT2=
EXTT3=
EXTT4=
EXTT5=
EXTT6=
EXTT7=
EXTT8=
EXTT9=
EXTT10=
EXTT11=
EXTT12=
EXTT13=
EXTT14=
EXTT15=
EXTT16=
EXTT17=
EXTT18=
EXTT19=
PLAYORDER=
